<?xml version="1.0" encoding="UTF-8"?>
<svg id="Layer_1" xmlns="http://www.w3.org/2000/svg" version="1.1" viewBox="0 0 1227.67 169.46">
  <!-- Generator: Adobe Illustrator 30.1.0, SVG Export Plug-In . SVG Version: 2.1.1 Build 136)  -->
  <defs>
    <style>
      .st0 {
        stroke-width: 2px;
      }

      .st0, .st1 {
        stroke: #ee7a78;
        stroke-miterlimit: 10;
      }

      .st2 {
        opacity: .75;
      }

      .st1 {
        fill: none;
      }

      .st3 {
        fill: #ee7a78;
      }

      .st4 {
        opacity: 0;
      }
    </style>
  </defs>
  <g class="st2">
    <rect class="st0" x="22.09" y="23.23" width="103" height="24.5"/>
    <rect class="st0" x="153.81" y="23.23" width="88.82" height="24.5"/>
    <rect class="st0" x="271.81" y="23.23" width="73.82" height="24.5"/>
    <rect class="st0" x="374.81" y="23.23" width="88.82" height="24.5"/>
    <rect class="st0" x="492.28" y="23.23" width="103.81" height="24.5"/>
    <rect class="st0" x="609.81" y="23.23" width="89.28" height="24.5"/>
    <rect class="st0" x="727.81" y="23.23" width="103.28" height="24.5"/>
    <polygon class="st0" points="890.14 47.57 890.02 23.24 845.27 23.26 845.4 47.63 890.14 47.57"/>
    <rect class="st0" x="948.28" y="23.23" width="30.35" height="24.39"/>
    <rect class="st0" x="1007.28" y="23.23" width="88.81" height="24.5"/>
    <polygon class="st0" points="1140.15 47.55 1140.02 23.24 1110.26 23.26 1110.39 47.65 1140.15 47.55"/>
    <rect class="st0" x="1183.81" y="23.23" width="29.82" height="24.5"/>
    <rect class="st0" x="22.09" y="51.23" width="29.54" height="24.5"/>
    <polygon class="st0" points="169.15 75.55 169.02 51.24 139.26 51.26 139.39 75.65 169.15 75.55"/>
    <rect class="st0" x="256.81" y="51.23" width="30.28" height="24.4"/>
    <rect class="st0" x="330.28" y="51.23" width="30.35" height="24.39"/>
    <rect class="st0" x="374.81" y="51.23" width="29.82" height="24.5"/>
    <polygon class="st0" points="478.15 75.55 478.02 51.24 448.26 51.26 448.39 75.65 478.15 75.55"/>
    <rect class="st0" x="492.28" y="51.23" width="30.35" height="24.39"/>
    <rect class="st0" x="609.81" y="51.23" width="30.28" height="24.4"/>
    <rect class="st0" x="683.81" y="51.23" width="29.82" height="24.5"/>
    <rect class="st0" x="727.81" y="51.23" width="29.82" height="24.5"/>
    <rect class="st0" x="845.28" y="51.23" width="59.81" height="24.49"/>
    <rect class="st0" x="948.28" y="51.23" width="30.35" height="24.39"/>
    <rect class="st0" x="992.81" y="51.23" width="29.82" height="24.5"/>
    <polygon class="st0" points="1140.15 75.55 1140.02 51.24 1110.26 51.26 1110.39 75.65 1140.15 75.55"/>
    <rect class="st0" x="1183.81" y="51.23" width="29.82" height="24.5"/>
    <rect class="st0" x="22.09" y="79.23" width="103" height="24.5"/>
    <polygon class="st0" points="169.15 103.55 169.02 79.24 139.26 79.26 139.39 103.65 169.15 103.55"/>
    <rect class="st0" x="256.81" y="79.23" width="103.82" height="24.5"/>
    <rect class="st0" x="374.81" y="79.23" width="88.82" height="24.5"/>
    <rect class="st0" x="492.28" y="79.23" width="74.35" height="24.5"/>
    <rect class="st0" x="609.81" y="79.23" width="89.28" height="24.5"/>
    <rect class="st0" x="727.81" y="79.23" width="74.28" height="24.5"/>
    <rect class="st0" x="845.28" y="79.23" width="30.35" height="24.39"/>
    <rect class="st0" x="889.81" y="79.23" width="29.82" height="24.5"/>
    <rect class="st0" x="948.28" y="79.23" width="30.35" height="24.39"/>
    <rect class="st0" x="992.81" y="79.23" width="29.82" height="24.5"/>
    <rect class="st0" x="1110.28" y="79.23" width="103.35" height="24.5"/>
    <polygon class="st0" points="125.15 131.55 125.02 107.24 95.26 107.26 95.39 131.65 125.15 131.55"/>
    <polygon class="st0" points="169.15 131.55 169.02 107.24 139.26 107.26 139.39 131.65 169.15 131.55"/>
    <rect class="st0" x="256.81" y="107.23" width="30.28" height="24.4"/>
    <rect class="st0" x="330.28" y="107.23" width="30.35" height="24.39"/>
    <rect class="st0" x="374.81" y="107.23" width="29.82" height="24.5"/>
    <polygon class="st0" points="478.15 131.55 478.02 107.24 448.26 107.26 448.39 131.65 478.15 131.55"/>
    <rect class="st0" x="492.28" y="107.23" width="30.35" height="24.39"/>
    <rect class="st0" x="609.81" y="107.23" width="30.28" height="24.4"/>
    <rect class="st0" x="683.81" y="107.23" width="29.82" height="24.5"/>
    <rect class="st0" x="727.81" y="107.23" width="29.82" height="24.5"/>
    <rect class="st0" x="845.28" y="107.23" width="30.35" height="24.39"/>
    <polygon class="st0" points="934.15 131.55 934.02 107.24 904.26 107.26 904.39 131.65 934.15 131.55"/>
    <rect class="st0" x="948.28" y="107.23" width="30.35" height="24.39"/>
    <rect class="st0" x="992.81" y="107.23" width="29.82" height="24.5"/>
    <polygon class="st0" points="1140.15 131.55 1140.02 107.24 1110.26 107.26 1110.39 131.65 1140.15 131.55"/>
    <rect class="st0" x="1183.81" y="107.23" width="29.82" height="24.5"/>
    <rect class="st0" x="22.09" y="135.23" width="103" height="24.5"/>
    <rect class="st0" x="153.81" y="135.23" width="88.82" height="24.5"/>
    <rect class="st0" x="256.81" y="135.23" width="30.28" height="24.4"/>
    <rect class="st0" x="330.28" y="135.23" width="30.35" height="24.39"/>
    <rect class="st0" x="374.81" y="135.23" width="29.82" height="24.5"/>
    <polygon class="st0" points="478.15 159.55 478.02 135.24 448.26 135.26 448.39 159.65 478.15 159.55"/>
    <rect class="st0" x="492.28" y="135.23" width="30.35" height="24.39"/>
    <rect class="st0" x="609.81" y="135.23" width="89.28" height="24.5"/>
    <rect class="st0" x="727.81" y="135.23" width="103.28" height="24.5"/>
    <rect class="st0" x="845.28" y="135.23" width="30.35" height="24.39"/>
    <rect class="st0" x="918.81" y="135.23" width="59.82" height="24.5"/>
    <rect class="st0" x="1007.28" y="135.23" width="88.81" height="24.5"/>
    <polygon class="st0" points="1140.15 159.55 1140.02 135.24 1110.26 135.26 1110.39 159.65 1140.15 159.55"/>
    <rect class="st0" x="1183.81" y="135.23" width="29.82" height="24.5"/>
    <g>
      <rect class="st0" x="492.28" y="23.23" width="103.81" height="24.5"/>
      <rect class="st0" x="1110.28" y="79.23" width="103.35" height="24.5"/>
      <rect class="st0" x="256.81" y="79.23" width="103.82" height="24.5"/>
      <rect class="st0" x="727.81" y="23.23" width="103.28" height="24.5"/>
      <rect class="st0" x="727.81" y="135.23" width="103.28" height="24.5"/>
      <rect class="st0" x="22.09" y="135.23" width="103" height="24.5"/>
      <rect class="st0" x="22.09" y="23.23" width="103" height="24.5"/>
      <rect class="st0" x="22.09" y="79.23" width="103" height="24.5"/>
      <rect class="st0" x="1007.28" y="135.23" width="88.81" height="24.5"/>
      <rect class="st0" x="1007.28" y="23.23" width="88.81" height="24.5"/>
      <rect class="st0" x="153.81" y="23.23" width="88.82" height="24.5"/>
      <rect class="st0" x="374.81" y="23.23" width="88.82" height="24.5"/>
      <rect class="st0" x="609.81" y="23.23" width="89.28" height="24.5"/>
      <rect class="st0" x="609.81" y="135.23" width="89.28" height="24.5"/>
      <rect class="st0" x="153.81" y="135.23" width="88.82" height="24.5"/>
      <rect class="st0" x="609.81" y="79.23" width="89.28" height="24.5"/>
      <rect class="st0" x="374.81" y="79.23" width="88.82" height="24.5"/>
      <rect class="st0" x="492.28" y="79.23" width="74.35" height="24.5"/>
      <rect class="st0" x="271.81" y="23.23" width="73.82" height="24.5"/>
      <rect class="st0" x="727.81" y="79.23" width="74.28" height="24.5"/>
      <rect class="st0" x="845.28" y="51.23" width="59.81" height="24.49"/>
      <rect class="st0" x="918.81" y="135.23" width="59.82" height="24.5"/>
      <polygon class="st0" points="890.14 47.57 845.4 47.63 845.27 23.26 890.02 23.24 890.14 47.57"/>
      <rect class="st0" x="845.28" y="79.23" width="30.35" height="24.39"/>
      <rect class="st0" x="948.28" y="51.23" width="30.35" height="24.39"/>
      <rect class="st0" x="948.28" y="23.23" width="30.35" height="24.39"/>
      <rect class="st0" x="845.28" y="135.23" width="30.35" height="24.39"/>
      <rect class="st0" x="492.28" y="51.23" width="30.35" height="24.39"/>
      <rect class="st0" x="492.28" y="135.23" width="30.35" height="24.39"/>
      <rect class="st0" x="948.28" y="79.23" width="30.35" height="24.39"/>
      <rect class="st0" x="330.28" y="135.23" width="30.35" height="24.39"/>
      <rect class="st0" x="330.28" y="51.23" width="30.35" height="24.39"/>
      <rect class="st0" x="330.28" y="107.23" width="30.35" height="24.39"/>
      <rect class="st0" x="492.28" y="107.23" width="30.35" height="24.39"/>
      <rect class="st0" x="948.28" y="107.23" width="30.35" height="24.39"/>
      <rect class="st0" x="845.28" y="107.23" width="30.35" height="24.39"/>
      <polygon class="st0" points="1140.15 75.55 1110.39 75.65 1110.26 51.26 1140.02 51.24 1140.15 75.55"/>
      <polygon class="st0" points="1140.15 159.55 1110.39 159.65 1110.26 135.26 1140.02 135.24 1140.15 159.55"/>
      <polygon class="st0" points="169.15 103.55 139.39 103.65 139.26 79.26 169.02 79.24 169.15 103.55"/>
      <polygon class="st0" points="1140.15 47.55 1110.39 47.65 1110.26 23.26 1140.02 23.24 1140.15 47.55"/>
      <polygon class="st0" points="478.15 75.55 448.39 75.65 448.26 51.26 478.02 51.24 478.15 75.55"/>
      <polygon class="st0" points="478.15 159.55 448.39 159.65 448.26 135.26 478.02 135.24 478.15 159.55"/>
      <polygon class="st0" points="125.15 131.55 95.39 131.65 95.26 107.26 125.02 107.24 125.15 131.55"/>
      <polygon class="st0" points="169.15 131.55 139.39 131.65 139.26 107.26 169.02 107.24 169.15 131.55"/>
      <polygon class="st0" points="169.15 75.55 139.39 75.65 139.26 51.26 169.02 51.24 169.15 75.55"/>
      <polygon class="st0" points="1140.15 131.55 1110.39 131.65 1110.26 107.26 1140.02 107.24 1140.15 131.55"/>
      <polygon class="st0" points="478.15 131.55 448.39 131.65 448.26 107.26 478.02 107.24 478.15 131.55"/>
      <polygon class="st0" points="934.15 131.55 904.39 131.65 904.26 107.26 934.02 107.24 934.15 131.55"/>
      <rect class="st0" x="727.81" y="107.23" width="29.82" height="24.5"/>
      <rect class="st0" x="683.81" y="107.23" width="29.82" height="24.5"/>
      <rect class="st0" x="609.81" y="107.23" width="30.28" height="24.4"/>
      <rect class="st0" x="992.81" y="107.23" width="29.82" height="24.5"/>
      <rect class="st0" x="374.81" y="107.23" width="29.82" height="24.5"/>
      <rect class="st0" x="1183.81" y="107.23" width="29.82" height="24.5"/>
      <rect class="st0" x="256.81" y="51.23" width="30.28" height="24.4"/>
      <rect class="st0" x="256.81" y="107.23" width="30.28" height="24.4"/>
      <rect class="st0" x="256.81" y="135.23" width="30.28" height="24.4"/>
      <rect class="st0" x="992.81" y="79.23" width="29.82" height="24.5"/>
      <rect class="st0" x="374.81" y="135.23" width="29.82" height="24.5"/>
      <rect class="st0" x="992.81" y="51.23" width="29.82" height="24.5"/>
      <rect class="st0" x="374.81" y="51.23" width="29.82" height="24.5"/>
      <rect class="st0" x="22.09" y="51.23" width="29.54" height="24.5"/>
      <rect class="st0" x="1183.81" y="23.23" width="29.82" height="24.5"/>
      <rect class="st0" x="609.81" y="51.23" width="30.28" height="24.4"/>
      <rect class="st0" x="683.81" y="51.23" width="29.82" height="24.5"/>
      <rect class="st0" x="727.81" y="51.23" width="29.82" height="24.5"/>
      <rect class="st0" x="1183.81" y="51.23" width="29.82" height="24.5"/>
      <rect class="st0" x="1183.81" y="135.23" width="29.82" height="24.5"/>
      <rect class="st0" x="889.81" y="79.23" width="29.82" height="24.5"/>
    </g>
  </g>
  <g>
    <rect x="15" y="10.98" width="103" height="24.5"/>
    <rect x="146.72" y="10.98" width="88.82" height="24.5"/>
    <rect x="264.72" y="10.98" width="73.82" height="24.5"/>
    <rect x="367.72" y="10.98" width="88.82" height="24.5"/>
    <rect x="485.19" y="10.98" width="103.81" height="24.5"/>
    <rect x="602.72" y="10.98" width="89.28" height="24.5"/>
    <rect x="720.72" y="10.98" width="103.28" height="24.5"/>
    <polygon points="883.05 35.33 882.93 10.99 838.18 11.01 838.31 35.38 883.05 35.33"/>
    <rect x="941.19" y="10.98" width="30.35" height="24.39"/>
    <rect x="1000.19" y="10.98" width="88.81" height="24.5"/>
    <polygon points="1133.06 35.3 1132.93 11 1103.17 11.02 1103.3 35.4 1133.06 35.3"/>
    <rect x="1176.72" y="10.98" width="29.82" height="24.5"/>
    <rect x="15" y="38.98" width="29.54" height="24.5"/>
    <polygon points="162.06 63.3 161.93 39 132.17 39.02 132.3 63.4 162.06 63.3"/>
    <rect x="249.72" y="38.98" width="30.28" height="24.4"/>
    <rect x="323.19" y="38.98" width="30.35" height="24.39"/>
    <rect x="367.72" y="38.98" width="29.82" height="24.5"/>
    <polygon points="471.06 63.3 470.93 39 441.17 39.02 441.3 63.4 471.06 63.3"/>
    <rect x="485.19" y="38.98" width="30.35" height="24.39"/>
    <rect x="602.72" y="38.98" width="30.28" height="24.4"/>
    <rect x="676.72" y="38.98" width="29.82" height="24.5"/>
    <rect x="720.72" y="38.98" width="29.82" height="24.5"/>
    <rect x="838.19" y="38.98" width="59.81" height="24.49"/>
    <rect x="941.19" y="38.98" width="30.35" height="24.39"/>
    <rect x="985.72" y="38.98" width="29.82" height="24.5"/>
    <polygon points="1133.06 63.3 1132.93 39 1103.17 39.02 1103.3 63.4 1133.06 63.3"/>
    <rect x="1176.72" y="38.98" width="29.82" height="24.5"/>
    <rect x="15" y="66.98" width="103" height="24.5"/>
    <polygon points="162.06 91.3 161.93 67 132.17 67.02 132.3 91.4 162.06 91.3"/>
    <rect x="249.72" y="66.98" width="103.82" height="24.5"/>
    <rect x="367.72" y="66.98" width="88.82" height="24.5"/>
    <rect x="485.19" y="66.98" width="74.35" height="24.5"/>
    <rect x="602.72" y="66.98" width="89.28" height="24.5"/>
    <rect x="720.72" y="66.98" width="74.28" height="24.5"/>
    <rect x="838.19" y="66.98" width="30.35" height="24.39"/>
    <rect x="882.72" y="66.98" width="29.82" height="24.5"/>
    <rect x="941.19" y="66.98" width="30.35" height="24.39"/>
    <rect x="985.72" y="66.98" width="29.82" height="24.5"/>
    <rect x="1103.19" y="66.98" width="103.35" height="24.5"/>
    <polygon points="118.06 119.3 117.93 95 88.17 95.02 88.3 119.4 118.06 119.3"/>
    <polygon points="162.06 119.3 161.93 95 132.17 95.02 132.3 119.4 162.06 119.3"/>
    <rect x="249.72" y="94.98" width="30.28" height="24.4"/>
    <rect x="323.19" y="94.98" width="30.35" height="24.39"/>
    <rect x="367.72" y="94.98" width="29.82" height="24.5"/>
    <polygon points="471.06 119.3 470.93 95 441.17 95.02 441.3 119.4 471.06 119.3"/>
    <rect x="485.19" y="94.98" width="30.35" height="24.39"/>
    <rect x="602.72" y="94.98" width="30.28" height="24.4"/>
    <rect x="676.72" y="94.98" width="29.82" height="24.5"/>
    <rect x="720.72" y="94.98" width="29.82" height="24.5"/>
    <rect x="838.19" y="94.98" width="30.35" height="24.39"/>
    <polygon points="927.06 119.3 926.93 95 897.17 95.02 897.3 119.4 927.06 119.3"/>
    <rect x="941.19" y="94.98" width="30.35" height="24.39"/>
    <rect x="985.72" y="94.98" width="29.82" height="24.5"/>
    <polygon points="1133.06 119.3 1132.93 95 1103.17 95.02 1103.3 119.4 1133.06 119.3"/>
    <rect x="1176.72" y="94.98" width="29.82" height="24.5"/>
    <rect x="15" y="122.98" width="103" height="24.5"/>
    <rect x="146.72" y="122.98" width="88.82" height="24.5"/>
    <rect x="249.72" y="122.98" width="30.28" height="24.4"/>
    <rect x="323.19" y="122.98" width="30.35" height="24.39"/>
    <rect x="367.72" y="122.98" width="29.82" height="24.5"/>
    <polygon points="471.06 147.3 470.93 123 441.17 123.02 441.3 147.4 471.06 147.3"/>
    <rect x="485.19" y="122.98" width="30.35" height="24.39"/>
    <rect x="602.72" y="122.98" width="89.28" height="24.5"/>
    <rect x="720.72" y="122.98" width="103.28" height="24.5"/>
    <rect x="838.19" y="122.98" width="30.35" height="24.39"/>
    <rect x="911.72" y="122.98" width="59.82" height="24.5"/>
    <rect x="1000.19" y="122.98" width="88.81" height="24.5"/>
    <polygon points="1133.06 147.3 1132.93 123 1103.17 123.02 1103.3 147.4 1133.06 147.3"/>
    <rect x="1176.72" y="122.98" width="29.82" height="24.5"/>
    <g>
      <rect class="st3" x="485.19" y="10.98" width="103.81" height="24.5"/>
      <rect class="st3" x="1103.19" y="66.98" width="103.35" height="24.5"/>
      <rect class="st3" x="249.72" y="66.98" width="103.82" height="24.5"/>
      <rect class="st3" x="720.72" y="10.98" width="103.28" height="24.5"/>
      <rect class="st3" x="720.72" y="122.98" width="103.28" height="24.5"/>
      <rect class="st3" x="15" y="122.98" width="103" height="24.5"/>
      <rect class="st3" x="15" y="10.98" width="103" height="24.5"/>
      <rect class="st3" x="15" y="66.98" width="103" height="24.5"/>
      <rect class="st3" x="1000.19" y="122.98" width="88.81" height="24.5"/>
      <rect class="st3" x="1000.19" y="10.98" width="88.81" height="24.5"/>
      <rect class="st3" x="146.72" y="10.98" width="88.82" height="24.5"/>
      <rect class="st3" x="367.72" y="10.98" width="88.82" height="24.5"/>
      <rect class="st3" x="602.72" y="10.98" width="89.28" height="24.5"/>
      <rect class="st3" x="602.72" y="122.98" width="89.28" height="24.5"/>
      <rect class="st3" x="146.72" y="122.98" width="88.82" height="24.5"/>
      <rect class="st3" x="602.72" y="66.98" width="89.28" height="24.5"/>
      <rect class="st3" x="367.72" y="66.98" width="88.82" height="24.5"/>
      <rect class="st3" x="485.19" y="66.98" width="74.35" height="24.5"/>
      <rect class="st3" x="264.72" y="10.98" width="73.82" height="24.5"/>
      <rect class="st3" x="720.72" y="66.98" width="74.28" height="24.5"/>
      <rect class="st3" x="838.19" y="38.98" width="59.81" height="24.49"/>
      <rect class="st3" x="911.72" y="122.98" width="59.82" height="24.5"/>
      <polygon class="st3" points="883.05 35.33 838.31 35.38 838.18 11.01 882.93 10.99 883.05 35.33"/>
      <rect class="st3" x="838.19" y="66.98" width="30.35" height="24.39"/>
      <rect class="st3" x="941.19" y="38.98" width="30.35" height="24.39"/>
      <rect class="st3" x="941.19" y="10.98" width="30.35" height="24.39"/>
      <rect class="st3" x="838.19" y="122.98" width="30.35" height="24.39"/>
      <rect class="st3" x="485.19" y="38.98" width="30.35" height="24.39"/>
      <rect class="st3" x="485.19" y="122.98" width="30.35" height="24.39"/>
      <rect class="st3" x="941.19" y="66.98" width="30.35" height="24.39"/>
      <rect class="st3" x="323.19" y="122.98" width="30.35" height="24.39"/>
      <rect class="st3" x="323.19" y="38.98" width="30.35" height="24.39"/>
      <rect class="st3" x="323.19" y="94.98" width="30.35" height="24.39"/>
      <rect class="st3" x="485.19" y="94.98" width="30.35" height="24.39"/>
      <rect class="st3" x="941.19" y="94.98" width="30.35" height="24.39"/>
      <rect class="st3" x="838.19" y="94.98" width="30.35" height="24.39"/>
      <polygon class="st3" points="1133.06 63.3 1103.3 63.4 1103.17 39.02 1132.93 39 1133.06 63.3"/>
      <polygon class="st3" points="1133.06 147.3 1103.3 147.4 1103.17 123.02 1132.93 123 1133.06 147.3"/>
      <polygon class="st3" points="162.06 91.3 132.3 91.4 132.17 67.02 161.93 67 162.06 91.3"/>
      <polygon class="st3" points="1133.06 35.3 1103.3 35.4 1103.17 11.02 1132.93 11 1133.06 35.3"/>
      <polygon class="st3" points="471.06 63.3 441.3 63.4 441.17 39.02 470.93 39 471.06 63.3"/>
      <polygon class="st3" points="471.06 147.3 441.3 147.4 441.17 123.02 470.93 123 471.06 147.3"/>
      <polygon class="st3" points="118.06 119.3 88.3 119.4 88.17 95.02 117.93 95 118.06 119.3"/>
      <polygon class="st3" points="162.06 119.3 132.3 119.4 132.17 95.02 161.93 95 162.06 119.3"/>
      <polygon class="st3" points="162.06 63.3 132.3 63.4 132.17 39.02 161.93 39 162.06 63.3"/>
      <polygon class="st3" points="1133.06 119.3 1103.3 119.4 1103.17 95.02 1132.93 95 1133.06 119.3"/>
      <polygon class="st3" points="471.06 119.3 441.3 119.4 441.17 95.02 470.93 95 471.06 119.3"/>
      <polygon class="st3" points="927.06 119.3 897.3 119.4 897.17 95.02 926.93 95 927.06 119.3"/>
      <rect class="st3" x="720.72" y="94.98" width="29.82" height="24.5"/>
      <rect class="st3" x="676.72" y="94.98" width="29.82" height="24.5"/>
      <rect class="st3" x="602.72" y="94.98" width="30.28" height="24.4"/>
      <rect class="st3" x="985.72" y="94.98" width="29.82" height="24.5"/>
      <rect class="st3" x="367.72" y="94.98" width="29.82" height="24.5"/>
      <rect class="st3" x="1176.72" y="94.98" width="29.82" height="24.5"/>
      <rect class="st3" x="249.72" y="38.98" width="30.28" height="24.4"/>
      <rect class="st3" x="249.72" y="94.98" width="30.28" height="24.4"/>
      <rect class="st3" x="249.72" y="122.98" width="30.28" height="24.4"/>
      <rect class="st3" x="985.72" y="66.98" width="29.82" height="24.5"/>
      <rect class="st3" x="367.72" y="122.98" width="29.82" height="24.5"/>
      <rect class="st3" x="985.72" y="38.98" width="29.82" height="24.5"/>
      <rect class="st3" x="367.72" y="38.98" width="29.82" height="24.5"/>
      <rect class="st3" x="15" y="38.98" width="29.54" height="24.5"/>
      <rect class="st3" x="1176.72" y="10.98" width="29.82" height="24.5"/>
      <rect class="st3" x="602.72" y="38.98" width="30.28" height="24.4"/>
      <rect class="st3" x="676.72" y="38.98" width="29.82" height="24.5"/>
      <rect class="st3" x="720.72" y="38.98" width="29.82" height="24.5"/>
      <rect class="st3" x="1176.72" y="38.98" width="29.82" height="24.5"/>
      <rect class="st3" x="1176.72" y="122.98" width="29.82" height="24.5"/>
      <rect class="st3" x="882.72" y="66.98" width="29.82" height="24.5"/>
    </g>
  </g>
  <g class="st4">
    <rect class="st1" x="-74.55" y="-42.34" width="103" height="24.5"/>
    <rect class="st1" x="57.17" y="-42.34" width="88.82" height="24.5"/>
    <rect class="st1" x="175.17" y="-42.34" width="73.82" height="24.5"/>
    <rect class="st1" x="278.17" y="-42.34" width="88.82" height="24.5"/>
    <rect class="st1" x="395.64" y="-42.34" width="103.81" height="24.5"/>
    <rect class="st1" x="513.17" y="-42.34" width="89.28" height="24.5"/>
    <rect class="st1" x="631.17" y="-42.34" width="103.28" height="24.5"/>
    <polygon class="st1" points="793.5 -18 793.38 -42.34 748.63 -42.32 748.76 -17.94 793.5 -18"/>
    <rect class="st1" x="851.64" y="-42.34" width="30.35" height="24.39"/>
    <rect class="st1" x="910.64" y="-42.34" width="88.81" height="24.5"/>
    <polygon class="st1" points="1043.51 -18.02 1043.38 -42.33 1013.62 -42.31 1013.75 -17.93 1043.51 -18.02"/>
    <rect class="st1" x="1087.17" y="-42.34" width="29.82" height="24.5"/>
    <rect class="st1" x="-74.55" y="-14.34" width="29.54" height="24.5"/>
    <polygon class="st1" points="72.51 9.98 72.38 -14.33 42.62 -14.31 42.75 10.07 72.51 9.98"/>
    <rect class="st1" x="160.17" y="-14.34" width="30.28" height="24.4"/>
    <rect class="st1" x="233.64" y="-14.34" width="30.35" height="24.39"/>
    <rect class="st1" x="278.17" y="-14.34" width="29.82" height="24.5"/>
    <polygon class="st1" points="381.51 9.98 381.38 -14.33 351.62 -14.31 351.75 10.07 381.51 9.98"/>
    <rect class="st1" x="395.64" y="-14.34" width="30.35" height="24.39"/>
    <rect class="st1" x="513.17" y="-14.34" width="30.28" height="24.4"/>
    <rect class="st1" x="587.17" y="-14.34" width="29.82" height="24.5"/>
    <rect class="st1" x="631.17" y="-14.34" width="29.82" height="24.5"/>
    <rect class="st1" x="748.64" y="-14.34" width="59.81" height="24.49"/>
    <rect class="st1" x="851.64" y="-14.34" width="30.35" height="24.39"/>
    <rect class="st1" x="896.17" y="-14.34" width="29.82" height="24.5"/>
    <polygon class="st1" points="1043.51 9.98 1043.38 -14.33 1013.62 -14.31 1013.75 10.07 1043.51 9.98"/>
    <rect class="st1" x="1087.17" y="-14.34" width="29.82" height="24.5"/>
    <rect class="st1" x="-74.55" y="13.66" width="103" height="24.5"/>
    <polygon class="st1" points="72.51 37.98 72.38 13.67 42.62 13.69 42.75 38.07 72.51 37.98"/>
    <rect class="st1" x="160.17" y="13.66" width="103.82" height="24.5"/>
    <rect class="st1" x="278.17" y="13.66" width="88.82" height="24.5"/>
    <rect class="st1" x="395.64" y="13.66" width="74.35" height="24.5"/>
    <rect class="st1" x="513.17" y="13.66" width="89.28" height="24.5"/>
    <rect class="st1" x="631.17" y="13.66" width="74.28" height="24.5"/>
    <rect class="st1" x="748.64" y="13.66" width="30.35" height="24.39"/>
    <rect class="st1" x="793.17" y="13.66" width="29.82" height="24.5"/>
    <rect class="st1" x="851.64" y="13.66" width="30.35" height="24.39"/>
    <rect class="st1" x="896.17" y="13.66" width="29.82" height="24.5"/>
    <rect class="st1" x="1013.64" y="13.66" width="103.35" height="24.5"/>
    <polygon class="st1" points="28.51 65.98 28.38 41.67 -1.38 41.69 -1.25 66.07 28.51 65.98"/>
    <polygon class="st1" points="72.51 65.98 72.38 41.67 42.62 41.69 42.75 66.07 72.51 65.98"/>
    <rect class="st1" x="160.17" y="41.66" width="30.28" height="24.4"/>
    <rect class="st1" x="233.64" y="41.66" width="30.35" height="24.39"/>
    <rect class="st1" x="278.17" y="41.66" width="29.82" height="24.5"/>
    <polygon class="st1" points="381.51 65.98 381.38 41.67 351.62 41.69 351.75 66.07 381.51 65.98"/>
    <rect class="st1" x="395.64" y="41.66" width="30.35" height="24.39"/>
    <rect class="st1" x="513.17" y="41.66" width="30.28" height="24.4"/>
    <rect class="st1" x="587.17" y="41.66" width="29.82" height="24.5"/>
    <rect class="st1" x="631.17" y="41.66" width="29.82" height="24.5"/>
    <rect class="st1" x="748.64" y="41.66" width="30.35" height="24.39"/>
    <polygon class="st1" points="837.51 65.98 837.38 41.67 807.62 41.69 807.75 66.07 837.51 65.98"/>
    <rect class="st1" x="851.64" y="41.66" width="30.35" height="24.39"/>
    <rect class="st1" x="896.17" y="41.66" width="29.82" height="24.5"/>
    <polygon class="st1" points="1043.51 65.98 1043.38 41.67 1013.62 41.69 1013.75 66.07 1043.51 65.98"/>
    <rect class="st1" x="1087.17" y="41.66" width="29.82" height="24.5"/>
    <rect class="st1" x="-74.55" y="69.66" width="103" height="24.5"/>
    <rect class="st1" x="57.17" y="69.66" width="88.82" height="24.5"/>
    <rect class="st1" x="160.17" y="69.66" width="30.28" height="24.4"/>
    <rect class="st1" x="233.64" y="69.66" width="30.35" height="24.39"/>
    <rect class="st1" x="278.17" y="69.66" width="29.82" height="24.5"/>
    <polygon class="st1" points="381.51 93.98 381.38 69.67 351.62 69.69 351.75 94.07 381.51 93.98"/>
    <rect class="st1" x="395.64" y="69.66" width="30.35" height="24.39"/>
    <rect class="st1" x="513.17" y="69.66" width="89.28" height="24.5"/>
    <rect class="st1" x="631.17" y="69.66" width="103.28" height="24.5"/>
    <rect class="st1" x="748.64" y="69.66" width="30.35" height="24.39"/>
    <rect class="st1" x="822.17" y="69.66" width="59.82" height="24.5"/>
    <rect class="st1" x="910.64" y="69.66" width="88.81" height="24.5"/>
    <polygon class="st1" points="1043.51 93.98 1043.38 69.67 1013.62 69.69 1013.75 94.07 1043.51 93.98"/>
    <rect class="st1" x="1087.17" y="69.66" width="29.82" height="24.5"/>
    <g>
      <rect class="st1" x="395.64" y="-42.34" width="103.81" height="24.5"/>
      <rect class="st1" x="1013.64" y="13.66" width="103.35" height="24.5"/>
      <rect class="st1" x="160.17" y="13.66" width="103.82" height="24.5"/>
      <rect class="st1" x="631.17" y="-42.34" width="103.28" height="24.5"/>
      <rect class="st1" x="631.17" y="69.66" width="103.28" height="24.5"/>
      <rect class="st1" x="-74.55" y="69.66" width="103" height="24.5"/>
      <rect class="st1" x="-74.55" y="-42.34" width="103" height="24.5"/>
      <rect class="st1" x="-74.55" y="13.66" width="103" height="24.5"/>
      <rect class="st1" x="910.64" y="69.66" width="88.81" height="24.5"/>
      <rect class="st1" x="910.64" y="-42.34" width="88.81" height="24.5"/>
      <rect class="st1" x="57.17" y="-42.34" width="88.82" height="24.5"/>
      <rect class="st1" x="278.17" y="-42.34" width="88.82" height="24.5"/>
      <rect class="st1" x="513.17" y="-42.34" width="89.28" height="24.5"/>
      <rect class="st1" x="513.17" y="69.66" width="89.28" height="24.5"/>
      <rect class="st1" x="57.17" y="69.66" width="88.82" height="24.5"/>
      <rect class="st1" x="513.17" y="13.66" width="89.28" height="24.5"/>
      <rect class="st1" x="278.17" y="13.66" width="88.82" height="24.5"/>
      <rect class="st1" x="395.64" y="13.66" width="74.35" height="24.5"/>
      <rect class="st1" x="175.17" y="-42.34" width="73.82" height="24.5"/>
      <rect class="st1" x="631.17" y="13.66" width="74.28" height="24.5"/>
      <rect class="st1" x="748.64" y="-14.34" width="59.81" height="24.49"/>
      <rect class="st1" x="822.17" y="69.66" width="59.82" height="24.5"/>
      <polygon class="st1" points="793.5 -18 748.76 -17.94 748.63 -42.32 793.38 -42.34 793.5 -18"/>
      <rect class="st1" x="748.64" y="13.66" width="30.35" height="24.39"/>
      <rect class="st1" x="851.64" y="-14.34" width="30.35" height="24.39"/>
      <rect class="st1" x="851.64" y="-42.34" width="30.35" height="24.39"/>
      <rect class="st1" x="748.64" y="69.66" width="30.35" height="24.39"/>
      <rect class="st1" x="395.64" y="-14.34" width="30.35" height="24.39"/>
      <rect class="st1" x="395.64" y="69.66" width="30.35" height="24.39"/>
      <rect class="st1" x="851.64" y="13.66" width="30.35" height="24.39"/>
      <rect class="st1" x="233.64" y="69.66" width="30.35" height="24.39"/>
      <rect class="st1" x="233.64" y="-14.34" width="30.35" height="24.39"/>
      <rect class="st1" x="233.64" y="41.66" width="30.35" height="24.39"/>
      <rect class="st1" x="395.64" y="41.66" width="30.35" height="24.39"/>
      <rect class="st1" x="851.64" y="41.66" width="30.35" height="24.39"/>
      <rect class="st1" x="748.64" y="41.66" width="30.35" height="24.39"/>
      <polygon class="st1" points="1043.51 9.98 1013.75 10.07 1013.62 -14.31 1043.38 -14.33 1043.51 9.98"/>
      <polygon class="st1" points="1043.51 93.98 1013.75 94.07 1013.62 69.69 1043.38 69.67 1043.51 93.98"/>
      <polygon class="st1" points="72.51 37.98 42.75 38.07 42.62 13.69 72.38 13.67 72.51 37.98"/>
      <polygon class="st1" points="1043.51 -18.02 1013.75 -17.93 1013.62 -42.31 1043.38 -42.33 1043.51 -18.02"/>
      <polygon class="st1" points="381.51 9.98 351.75 10.07 351.62 -14.31 381.38 -14.33 381.51 9.98"/>
      <polygon class="st1" points="381.51 93.98 351.75 94.07 351.62 69.69 381.38 69.67 381.51 93.98"/>
      <polygon class="st1" points="28.51 65.98 -1.25 66.07 -1.38 41.69 28.38 41.67 28.51 65.98"/>
      <polygon class="st1" points="72.51 65.98 42.75 66.07 42.62 41.69 72.38 41.67 72.51 65.98"/>
      <polygon class="st1" points="72.51 9.98 42.75 10.07 42.62 -14.31 72.38 -14.33 72.51 9.98"/>
      <polygon class="st1" points="1043.51 65.98 1013.75 66.07 1013.62 41.69 1043.38 41.67 1043.51 65.98"/>
      <polygon class="st1" points="381.51 65.98 351.75 66.07 351.62 41.69 381.38 41.67 381.51 65.98"/>
      <polygon class="st1" points="837.51 65.98 807.75 66.07 807.62 41.69 837.38 41.67 837.51 65.98"/>
      <rect class="st1" x="631.17" y="41.66" width="29.82" height="24.5"/>
      <rect class="st1" x="587.17" y="41.66" width="29.82" height="24.5"/>
      <rect class="st1" x="513.17" y="41.66" width="30.28" height="24.4"/>
      <rect class="st1" x="896.17" y="41.66" width="29.82" height="24.5"/>
      <rect class="st1" x="278.17" y="41.66" width="29.82" height="24.5"/>
      <rect class="st1" x="1087.17" y="41.66" width="29.82" height="24.5"/>
      <rect class="st1" x="160.17" y="-14.34" width="30.28" height="24.4"/>
      <rect class="st1" x="160.17" y="41.66" width="30.28" height="24.4"/>
      <rect class="st1" x="160.17" y="69.66" width="30.28" height="24.4"/>
      <rect class="st1" x="896.17" y="13.66" width="29.82" height="24.5"/>
      <rect class="st1" x="278.17" y="69.66" width="29.82" height="24.5"/>
      <rect class="st1" x="896.17" y="-14.34" width="29.82" height="24.5"/>
      <rect class="st1" x="278.17" y="-14.34" width="29.82" height="24.5"/>
      <rect class="st1" x="-74.55" y="-14.34" width="29.54" height="24.5"/>
      <rect class="st1" x="1087.17" y="-42.34" width="29.82" height="24.5"/>
      <rect class="st1" x="513.17" y="-14.34" width="30.28" height="24.4"/>
      <rect class="st1" x="587.17" y="-14.34" width="29.82" height="24.5"/>
      <rect class="st1" x="631.17" y="-14.34" width="29.82" height="24.5"/>
      <rect class="st1" x="1087.17" y="-14.34" width="29.82" height="24.5"/>
      <rect class="st1" x="1087.17" y="69.66" width="29.82" height="24.5"/>
      <rect class="st1" x="793.17" y="13.66" width="29.82" height="24.5"/>
    </g>
  </g>
</svg>